<svg width="25" height="25" viewBox="0 0 25 25" fill="none" xmlns="http://www.w3.org/2000/svg">
<path d="M2.63158 1.31579C2.63158 1.57603 2.55441 1.83042 2.40983 2.0468C2.26525 2.26318 2.05975 2.43183 1.81932 2.53142C1.57889 2.63101 1.31433 2.65707 1.05909 2.6063C0.803854 2.55553 0.569403 2.43021 0.385387 2.24619C0.20137 2.06218 0.0760531 1.82773 0.0252831 1.57249C-0.0254869 1.31725 0.000570104 1.05269 0.100159 0.81226C0.199748 0.571831 0.368396 0.366332 0.584777 0.221751C0.801157 0.0771705 1.05555 7.10482e-07 1.31579 7.10482e-07C1.66476 7.10482e-07 1.99944 0.138628 2.24619 0.385387C2.49295 0.632145 2.63158 0.966821 2.63158 1.31579ZM12.5 7.10482e-07C12.2398 7.10482e-07 11.9854 0.0771705 11.769 0.221751C11.5526 0.366332 11.384 0.571831 11.2844 0.81226C11.1848 1.05269 11.1587 1.31725 11.2095 1.57249C11.2603 1.82773 11.3856 2.06218 11.5696 2.24619C11.7536 2.43021 11.9881 2.55553 12.2433 2.6063C12.4985 2.65707 12.7631 2.63101 13.0035 2.53142C13.244 2.43183 13.4495 2.26318 13.594 2.0468C13.7386 1.83042 13.8158 1.57603 13.8158 1.31579C13.8158 0.966821 13.6772 0.632145 13.4304 0.385387C13.1836 0.138628 12.849 7.10482e-07 12.5 7.10482e-07ZM23.6842 2.63158C23.9444 2.63158 24.1988 2.55441 24.4152 2.40983C24.6316 2.26525 24.8003 2.05975 24.8998 1.81932C24.9994 1.57889 25.0255 1.31433 24.9747 1.05909C24.9239 0.803854 24.7986 0.569403 24.6146 0.385387C24.4306 0.20137 24.1961 0.0760531 23.9409 0.0252831C23.6857 -0.0254869 23.4211 0.000570104 23.1807 0.100159C22.9403 0.199748 22.7348 0.368396 22.5902 0.584777C22.4456 0.801157 22.3684 1.05555 22.3684 1.31579C22.3684 1.66476 22.507 1.99944 22.7538 2.24619C23.0006 2.49295 23.3352 2.63158 23.6842 2.63158ZM1.31579 22.3684C1.05555 22.3684 0.801157 22.4456 0.584777 22.5902C0.368396 22.7348 0.199748 22.9403 0.100159 23.1807C0.000570104 23.4211 -0.0254869 23.6857 0.0252831 23.9409C0.0760531 24.1961 0.20137 24.4306 0.385387 24.6146C0.569403 24.7986 0.803854 24.9239 1.05909 24.9747C1.31433 25.0255 1.57889 24.9994 1.81932 24.8998C2.05975 24.8003 2.26525 24.6316 2.40983 24.4152C2.55441 24.1988 2.63158 23.9444 2.63158 23.6842C2.63158 23.3352 2.49295 23.0006 2.24619 22.7538C1.99944 22.507 1.66476 22.3684 1.31579 22.3684ZM12.5 22.3684C12.2398 22.3684 11.9854 22.4456 11.769 22.5902C11.5526 22.7348 11.384 22.9403 11.2844 23.1807C11.1848 23.4211 11.1587 23.6857 11.2095 23.9409C11.2603 24.1961 11.3856 24.4306 11.5696 24.6146C11.7536 24.7986 11.9881 24.9239 12.2433 24.9747C12.4985 25.0255 12.7631 24.9994 13.0035 24.8998C13.244 24.8003 13.4495 24.6316 13.594 24.4152C13.7386 24.1988 13.8158 23.9444 13.8158 23.6842C13.8158 23.3352 13.6772 23.0006 13.4304 22.7538C13.1836 22.507 12.849 22.3684 12.5 22.3684ZM23.6842 22.3684C23.424 22.3684 23.1696 22.4456 22.9532 22.5902C22.7368 22.7348 22.5682 22.9403 22.4686 23.1807C22.369 23.4211 22.3429 23.6857 22.3937 23.9409C22.4445 24.1961 22.5698 24.4306 22.7538 24.6146C22.9378 24.7986 23.1723 24.9239 23.4275 24.9747C23.6828 25.0255 23.9473 24.9994 24.1877 24.8998C24.4282 24.8003 24.6337 24.6316 24.7783 24.4152C24.9228 24.1988 25 23.9444 25 23.6842C25 23.3352 24.8614 23.0006 24.6146 22.7538C24.3679 22.507 24.0332 22.3684 23.6842 22.3684ZM1.31579 11.1842C1.05555 11.1842 0.801157 11.2614 0.584777 11.406C0.368396 11.5505 0.199748 11.756 0.100159 11.9965C0.000570104 12.2369 -0.0254869 12.5015 0.0252831 12.7567C0.0760531 13.0119 0.20137 13.2464 0.385387 13.4304C0.569403 13.6144 0.803854 13.7397 1.05909 13.7905C1.31433 13.8413 1.57889 13.8152 1.81932 13.7156C2.05975 13.616 2.26525 13.4474 2.40983 13.231C2.55441 13.0146 2.63158 12.7602 2.63158 12.5C2.63158 12.151 2.49295 11.8164 2.24619 11.5696C1.99944 11.3228 1.66476 11.1842 1.31579 11.1842ZM12.5 11.1842C12.2398 11.1842 11.9854 11.2614 11.769 11.406C11.5526 11.5505 11.384 11.756 11.2844 11.9965C11.1848 12.2369 11.1587 12.5015 11.2095 12.7567C11.2603 13.0119 11.3856 13.2464 11.5696 13.4304C11.7536 13.6144 11.9881 13.7397 12.2433 13.7905C12.4985 13.8413 12.7631 13.8152 13.0035 13.7156C13.244 13.616 13.4495 13.4474 13.594 13.231C13.7386 13.0146 13.8158 12.7602 13.8158 12.5C13.8158 12.151 13.6772 11.8164 13.4304 11.5696C13.1836 11.3228 12.849 11.1842 12.5 11.1842ZM23.6842 11.1842C23.424 11.1842 23.1696 11.2614 22.9532 11.406C22.7368 11.5505 22.5682 11.756 22.4686 11.9965C22.369 12.2369 22.3429 12.5015 22.3937 12.7567C22.4445 13.0119 22.5698 13.2464 22.7538 13.4304C22.9378 13.6144 23.1723 13.7397 23.4275 13.7905C23.6828 13.8413 23.9473 13.8152 24.1877 13.7156C24.4282 13.616 24.6337 13.4474 24.7783 13.231C24.9228 13.0146 25 12.7602 25 12.5C25 12.151 24.8614 11.8164 24.6146 11.5696C24.3679 11.3228 24.0332 11.1842 23.6842 11.1842Z" fill="black"/>
</svg>
