<svg width="26" height="26" viewBox="0 0 26 26" fill="none" xmlns="http://www.w3.org/2000/svg">
<path d="M9.48624 25.9999C9.15014 26.0027 8.82186 25.8986 8.54868 25.7028C8.2755 25.5071 8.07153 25.2297 7.96615 24.9106L0.0831649 2.14089C-0.0121614 1.8543 -0.0258345 1.54683 0.0436757 1.25291C0.113186 0.958992 0.263137 0.690209 0.476747 0.476645C0.690357 0.26308 0.959198 0.113162 1.25318 0.0436663C1.54717 -0.025829 1.85469 -0.0121588 2.14135 0.0831471L24.9159 7.96444C25.2371 8.07611 25.5149 8.28635 25.7095 8.56518C25.9041 8.84401 26.0057 9.17717 25.9998 9.51714C25.9938 9.8571 25.8806 10.1865 25.6763 10.4583C25.472 10.7302 25.187 10.9305 24.8621 11.0309L14.5577 14.2049C14.4767 14.2329 14.4031 14.2789 14.3425 14.3395C14.2819 14.4 14.2359 14.4736 14.208 14.5546L11.0332 24.8568C10.9375 25.1823 10.7391 25.4682 10.4676 25.6718C10.1961 25.8754 9.866 25.9858 9.5266 25.9865L9.48624 25.9999ZM1.60326 1.06495C1.53286 1.0652 1.46323 1.07963 1.39852 1.10735C1.33381 1.13508 1.27534 1.17554 1.2266 1.22634C1.15478 1.29923 1.10524 1.3911 1.0838 1.49115C1.06235 1.5912 1.06989 1.69529 1.10553 1.79121L8.98851 24.5609C9.0237 24.6671 9.09276 24.7588 9.1851 24.8219C9.27744 24.8851 9.38795 24.9162 9.49969 24.9106C9.61489 24.9146 9.72807 24.8796 9.82086 24.8112C9.91365 24.7429 9.98062 24.6452 10.0109 24.534L13.1721 14.2453C13.2523 13.9929 13.3919 13.7635 13.5792 13.5762C13.7664 13.389 13.9959 13.2495 14.2483 13.1693L24.5392 10.0087C24.6496 9.97503 24.7465 9.90759 24.8165 9.81592C24.8865 9.72424 24.9259 9.61293 24.9294 9.49766C24.9319 9.38472 24.898 9.27398 24.8325 9.1819C24.7671 9.08981 24.6737 9.02131 24.5661 8.98658L1.79159 1.10529C1.73227 1.07901 1.66815 1.06528 1.60326 1.06495Z" fill="black"/>
</svg>
