<svg width="26" height="26" viewBox="0 0 26 26" fill="none" xmlns="http://www.w3.org/2000/svg">
<path d="M25.8459 25.1179L19.8918 19.1508C21.9061 16.9428 22.9765 14.0342 22.8738 11.0472C22.7711 8.06022 21.5036 5.23201 19.3423 3.1676C17.1811 1.10319 14.2978 -0.0334821 11.3092 0.000751422C8.32066 0.0349849 5.46415 1.2374 3.35078 3.35078C1.2374 5.46415 0.0349849 8.32066 0.000751422 11.3092C-0.0334821 14.2978 1.10319 17.1811 3.1676 19.3423C5.23201 21.5036 8.06022 22.7711 11.0472 22.8738C14.0342 22.9765 16.9428 21.9061 19.1508 19.8918L25.1179 25.8459C25.1652 25.8947 25.2217 25.9334 25.2843 25.9599C25.3468 25.9864 25.414 26 25.4819 26C25.5498 26 25.617 25.9864 25.6795 25.9599C25.7421 25.9334 25.7987 25.8947 25.8459 25.8459C25.8947 25.7987 25.9334 25.7421 25.9599 25.6795C25.9864 25.617 26 25.5498 26 25.4819C26 25.414 25.9864 25.3468 25.9599 25.2843C25.9334 25.2217 25.8947 25.1652 25.8459 25.1179ZM1.04134 11.4416C1.04134 9.38461 1.6513 7.37383 2.79409 5.66352C3.93689 3.9532 5.56118 2.62018 7.46158 1.83301C9.36198 1.04584 11.4531 0.83988 13.4706 1.24118C15.488 1.64247 17.3412 2.633 18.7957 4.0875C20.2502 5.542 21.2407 7.39514 21.642 9.41259C22.0433 11.43 21.8373 13.5212 21.0502 15.4216C20.263 17.322 18.93 18.9463 17.2196 20.0891C15.5093 21.2319 13.4986 21.8418 11.4416 21.8418C8.68432 21.8384 6.04098 20.7415 4.0913 18.7919C2.14162 16.8422 1.04478 14.1988 1.04134 11.4416Z" fill="black"/>
</svg>
